M48
; DRILL file {KiCad (5.1.8)-1} date 01/09/21 13:56:28
; FORMAT={-:-/ absolute / inch / decimal}
; #@! TF.CreationDate,2021-01-09T13:56:28-05:00
; #@! TF.GenerationSoftware,Kicad,Pcbnew,(5.1.8)-1
FMAT,2
INCH
T1C0.0157
T2C0.0197
T3C0.0236
T4C0.0335
T5C0.0472
T6C0.1693
T7C0.0354
%
G90
G05
T1
X4.5315Y-3.4961
X4.5354Y-3.6732
X4.7756Y-3.9331
X4.8904Y-4.0807
X4.8904Y-4.1476
X4.9232Y-3.7776
X4.9567Y-3.8504
X4.9606Y-3.998
X4.9724Y-4.1358
X4.998Y-3.6181
X4.998Y-3.8504
X5.0Y-3.9961
X5.0335Y-3.7776
X5.0984Y-4.2638
X5.1307Y-3.6437
X5.1417Y-3.5984
X5.1831Y-3.6417
X5.2165Y-4.2618
X5.3307Y-3.5984
X5.378Y-3.8583
X5.4094Y-3.5197
X5.4587Y-4.2362
X5.5118Y-3.7697
X5.5394Y-3.6811
X5.5394Y-4.2854
X5.5571Y-4.2047
X5.5768Y-2.9862
X5.5906Y-4.5906
X5.5906Y-4.6358
X5.6102Y-3.7008
X5.6772Y-2.9862
X5.7185Y-4.5846
X5.7185Y-4.6339
X5.7244Y-2.9862
X5.7776Y-2.9862
X5.8169Y-4.7106
X5.8169Y-4.7559
X5.8189Y-4.8169
X5.8189Y-4.8642
X5.82Y-4.34
X5.82Y-4.39
X5.9201Y-3.1677
X5.9232Y-4.5413
X5.9232Y-4.628
X5.9232Y-4.6654
X5.9335Y-3.0894
X5.9852Y-4.6427
X5.9902Y-4.3602
X6.0295Y-4.6831
X6.0886Y-4.3622
X6.09Y-3.69
X6.0925Y-4.4016
X6.1122Y-4.1516
X6.1142Y-4.2461
X6.1417Y-4.4469
X6.1575Y-4.5433
X6.1929Y-3.6673
X6.1929Y-3.7087
X6.2087Y-4.5768
X6.2343Y-3.6673
X6.2343Y-3.7087
T2
X5.1811Y-4.9055
X5.2303Y-4.9055
X5.2795Y-4.9055
X5.3287Y-4.9055
X5.1594Y-3.1575
X5.2087Y-3.1575
X5.2579Y-3.1575
X5.3071Y-3.1575
T4
X6.3007Y-3.6614
X6.3007Y-3.8583
T5
X6.2913Y-4.2992
X6.2913Y-4.437
T6
X4.5276Y-3.1496
X6.2992Y-4.9213
X4.5276Y-4.9213
X6.2992Y-3.1496
T7
X4.4063Y-3.5256
X4.4063Y-3.6437
T3
G00X6.3932Y-3.622
M15
G01X6.4208Y-3.622
M16
G05
G00X6.4208Y-3.8976
M15
G01X6.3932Y-3.8976
M16
G05
T0
M30
