%TF.GenerationSoftware,KiCad,Pcbnew,(5.1.8)-1*%
%TF.CreationDate,2021-01-09T13:57:28-05:00*%
%TF.ProjectId,STM32+USB+BUCK,53544d33-322b-4555-9342-2b4255434b2e,rev?*%
%TF.SameCoordinates,Original*%
%TF.FileFunction,Copper,L4,Bot*%
%TF.FilePolarity,Positive*%
%FSLAX46Y46*%
G04 Gerber Fmt 4.6, Leading zero omitted, Abs format (unit mm)*
G04 Created by KiCad (PCBNEW (5.1.8)-1) date 2021-01-09 13:57:28*
%MOMM*%
%LPD*%
G01*
G04 APERTURE LIST*
%TA.AperFunction,ComponentPad*%
%ADD10O,1.900000X1.200000*%
%TD*%
%TA.AperFunction,ComponentPad*%
%ADD11C,1.450000*%
%TD*%
%TA.AperFunction,ComponentPad*%
%ADD12C,8.600000*%
%TD*%
%TA.AperFunction,ComponentPad*%
%ADD13R,2.400000X2.400000*%
%TD*%
%TA.AperFunction,ComponentPad*%
%ADD14C,2.400000*%
%TD*%
%TA.AperFunction,ComponentPad*%
%ADD15O,0.800000X1.300000*%
%TD*%
%TA.AperFunction,ViaPad*%
%ADD16C,0.800000*%
%TD*%
%TA.AperFunction,Conductor*%
%ADD17C,0.300000*%
%TD*%
G04 APERTURE END LIST*
D10*
%TO.P,J1,6*%
%TO.N,Net-(J1-Pad6)*%
X162737500Y-92000000D03*
X162737500Y-99000000D03*
D11*
X160037500Y-93000000D03*
X160037500Y-98000000D03*
%TD*%
D12*
%TO.P,H1,1*%
%TO.N,GND*%
X160000000Y-80000000D03*
%TD*%
%TO.P,H2,1*%
%TO.N,GND*%
X115000000Y-125000000D03*
%TD*%
%TO.P,H3,1*%
%TO.N,GND*%
X160000000Y-125000000D03*
%TD*%
%TO.P,H4,1*%
%TO.N,GND*%
X115000000Y-80000000D03*
%TD*%
D13*
%TO.P,J2,1*%
%TO.N,+12V*%
X159800000Y-112700000D03*
D14*
%TO.P,J2,2*%
%TO.N,GND*%
X159800000Y-109200000D03*
%TD*%
%TO.P,J3,1*%
%TO.N,+3V3*%
%TA.AperFunction,ComponentPad*%
G36*
G01*
X135200000Y-79750000D02*
X135200000Y-80650000D01*
G75*
G02*
X135000000Y-80850000I-200000J0D01*
G01*
X134600000Y-80850000D01*
G75*
G02*
X134400000Y-80650000I0J200000D01*
G01*
X134400000Y-79750000D01*
G75*
G02*
X134600000Y-79550000I200000J0D01*
G01*
X135000000Y-79550000D01*
G75*
G02*
X135200000Y-79750000I0J-200000D01*
G01*
G37*
%TD.AperFunction*%
D15*
%TO.P,J3,2*%
%TO.N,I2C1_SCL*%
X133550000Y-80200000D03*
%TO.P,J3,3*%
%TO.N,I2C1_SDA*%
X132300000Y-80200000D03*
%TO.P,J3,4*%
%TO.N,GND*%
X131050000Y-80200000D03*
%TD*%
%TO.P,J5,4*%
%TO.N,GND*%
X135350000Y-124600000D03*
%TO.P,J5,3*%
%TO.N,USART3_RX*%
X134100000Y-124600000D03*
%TO.P,J5,2*%
%TO.N,USART3_TX*%
X132850000Y-124600000D03*
%TO.P,J5,1*%
%TO.N,+3V3*%
%TA.AperFunction,ComponentPad*%
G36*
G01*
X131200000Y-125050000D02*
X131200000Y-124150000D01*
G75*
G02*
X131400000Y-123950000I200000J0D01*
G01*
X131800000Y-123950000D01*
G75*
G02*
X132000000Y-124150000I0J-200000D01*
G01*
X132000000Y-125050000D01*
G75*
G02*
X131800000Y-125250000I-200000J0D01*
G01*
X131400000Y-125250000D01*
G75*
G02*
X131200000Y-125050000I0J200000D01*
G01*
G37*
%TD.AperFunction*%
%TD*%
D16*
%TO.N,GND*%
X154650000Y-110800000D03*
X152150000Y-110750000D03*
X155250000Y-105450000D03*
X155300000Y-107850000D03*
X150450000Y-115350000D03*
X150450000Y-117550000D03*
X150450000Y-118500000D03*
X147750000Y-119650000D03*
X147750000Y-120800000D03*
X147800000Y-122350000D03*
X147800000Y-123550000D03*
X150370000Y-80460000D03*
X145400000Y-75850000D03*
X144200000Y-75850000D03*
X141650000Y-75850000D03*
X125050000Y-95950000D03*
X127850000Y-95950000D03*
X126950000Y-91900000D03*
X115200000Y-93300000D03*
X125900000Y-97800000D03*
X121300000Y-99900000D03*
X126000000Y-101550000D03*
X127000000Y-101500000D03*
X141150000Y-106800000D03*
X140700000Y-108850000D03*
X129500000Y-108300000D03*
X140700000Y-93500000D03*
X142500000Y-94000000D03*
X131650000Y-92500000D03*
X154686000Y-93726000D03*
X147828000Y-110236000D03*
X147828000Y-111506000D03*
X156400000Y-115400000D03*
X157700000Y-116250000D03*
X154750000Y-111800000D03*
X156000000Y-112950000D03*
X158350000Y-94200000D03*
X157300000Y-94200000D03*
X157300000Y-93150000D03*
X158350000Y-93150000D03*
X126300000Y-105050000D03*
%TO.N,+3V3*%
X130600000Y-91400000D03*
X130320000Y-92550000D03*
X135400000Y-91400000D03*
X140000000Y-95750000D03*
X152025000Y-117925000D03*
X153150000Y-118950000D03*
X150710000Y-78470000D03*
X146750000Y-75850000D03*
X115100000Y-88800000D03*
X126950000Y-97800000D03*
X124215000Y-103650000D03*
X124215000Y-105350000D03*
X138650000Y-107600000D03*
X132500000Y-108250000D03*
X145250000Y-116450000D03*
X142000000Y-116600000D03*
X145250000Y-117700000D03*
X142000000Y-117750000D03*
%TO.N,NRST*%
X137400000Y-89400000D03*
X136600000Y-98000000D03*
%TD*%
D17*
%TO.N,NRST*%
X137400000Y-97200000D02*
X137400000Y-89400000D01*
X136600000Y-98000000D02*
X137400000Y-97200000D01*
%TD*%
M02*
