%TF.GenerationSoftware,KiCad,Pcbnew,(5.1.8)-1*%
%TF.CreationDate,2021-01-09T13:57:28-05:00*%
%TF.ProjectId,STM32+USB+BUCK,53544d33-322b-4555-9342-2b4255434b2e,rev?*%
%TF.SameCoordinates,Original*%
%TF.FileFunction,Paste,Top*%
%TF.FilePolarity,Positive*%
%FSLAX46Y46*%
G04 Gerber Fmt 4.6, Leading zero omitted, Abs format (unit mm)*
G04 Created by KiCad (PCBNEW (5.1.8)-1) date 2021-01-09 13:57:28*
%MOMM*%
%LPD*%
G01*
G04 APERTURE LIST*
%ADD10R,1.900000X1.500000*%
%ADD11R,1.350000X0.400000*%
%ADD12R,0.900000X1.200000*%
%ADD13R,0.740000X2.400000*%
%ADD14R,2.500000X1.900000*%
%ADD15R,0.800000X0.900000*%
%ADD16R,1.500000X0.700000*%
%ADD17R,0.800000X1.000000*%
%ADD18R,0.650000X1.060000*%
%ADD19R,1.060000X0.650000*%
%ADD20R,1.200000X1.400000*%
G04 APERTURE END LIST*
D10*
%TO.C,J1*%
X162737500Y-96500000D03*
D11*
X160037500Y-95500000D03*
X160037500Y-94850000D03*
X160037500Y-94200000D03*
X160037500Y-96800000D03*
X160037500Y-96150000D03*
D10*
X162737500Y-94500000D03*
%TD*%
%TO.C,C12*%
G36*
G01*
X126120000Y-102800000D02*
X125780000Y-102800000D01*
G75*
G02*
X125640000Y-102660000I0J140000D01*
G01*
X125640000Y-102380000D01*
G75*
G02*
X125780000Y-102240000I140000J0D01*
G01*
X126120000Y-102240000D01*
G75*
G02*
X126260000Y-102380000I0J-140000D01*
G01*
X126260000Y-102660000D01*
G75*
G02*
X126120000Y-102800000I-140000J0D01*
G01*
G37*
G36*
G01*
X126120000Y-103760000D02*
X125780000Y-103760000D01*
G75*
G02*
X125640000Y-103620000I0J140000D01*
G01*
X125640000Y-103340000D01*
G75*
G02*
X125780000Y-103200000I140000J0D01*
G01*
X126120000Y-103200000D01*
G75*
G02*
X126260000Y-103340000I0J-140000D01*
G01*
X126260000Y-103620000D01*
G75*
G02*
X126120000Y-103760000I-140000J0D01*
G01*
G37*
%TD*%
%TO.C,C1*%
G36*
G01*
X137475000Y-109050000D02*
X137475000Y-108550000D01*
G75*
G02*
X137700000Y-108325000I225000J0D01*
G01*
X138150000Y-108325000D01*
G75*
G02*
X138375000Y-108550000I0J-225000D01*
G01*
X138375000Y-109050000D01*
G75*
G02*
X138150000Y-109275000I-225000J0D01*
G01*
X137700000Y-109275000D01*
G75*
G02*
X137475000Y-109050000I0J225000D01*
G01*
G37*
G36*
G01*
X139025000Y-109050000D02*
X139025000Y-108550000D01*
G75*
G02*
X139250000Y-108325000I225000J0D01*
G01*
X139700000Y-108325000D01*
G75*
G02*
X139925000Y-108550000I0J-225000D01*
G01*
X139925000Y-109050000D01*
G75*
G02*
X139700000Y-109275000I-225000J0D01*
G01*
X139250000Y-109275000D01*
G75*
G02*
X139025000Y-109050000I0J225000D01*
G01*
G37*
%TD*%
%TO.C,C2*%
G36*
G01*
X128925000Y-92950000D02*
X128925000Y-93450000D01*
G75*
G02*
X128700000Y-93675000I-225000J0D01*
G01*
X128250000Y-93675000D01*
G75*
G02*
X128025000Y-93450000I0J225000D01*
G01*
X128025000Y-92950000D01*
G75*
G02*
X128250000Y-92725000I225000J0D01*
G01*
X128700000Y-92725000D01*
G75*
G02*
X128925000Y-92950000I0J-225000D01*
G01*
G37*
G36*
G01*
X127375000Y-92950000D02*
X127375000Y-93450000D01*
G75*
G02*
X127150000Y-93675000I-225000J0D01*
G01*
X126700000Y-93675000D01*
G75*
G02*
X126475000Y-93450000I0J225000D01*
G01*
X126475000Y-92950000D01*
G75*
G02*
X126700000Y-92725000I225000J0D01*
G01*
X127150000Y-92725000D01*
G75*
G02*
X127375000Y-92950000I0J-225000D01*
G01*
G37*
%TD*%
%TO.C,C3*%
G36*
G01*
X142600000Y-95825000D02*
X142100000Y-95825000D01*
G75*
G02*
X141875000Y-95600000I0J225000D01*
G01*
X141875000Y-95150000D01*
G75*
G02*
X142100000Y-94925000I225000J0D01*
G01*
X142600000Y-94925000D01*
G75*
G02*
X142825000Y-95150000I0J-225000D01*
G01*
X142825000Y-95600000D01*
G75*
G02*
X142600000Y-95825000I-225000J0D01*
G01*
G37*
G36*
G01*
X142600000Y-97375000D02*
X142100000Y-97375000D01*
G75*
G02*
X141875000Y-97150000I0J225000D01*
G01*
X141875000Y-96700000D01*
G75*
G02*
X142100000Y-96475000I225000J0D01*
G01*
X142600000Y-96475000D01*
G75*
G02*
X142825000Y-96700000I0J-225000D01*
G01*
X142825000Y-97150000D01*
G75*
G02*
X142600000Y-97375000I-225000J0D01*
G01*
G37*
%TD*%
%TO.C,C4*%
G36*
G01*
X131000000Y-93570000D02*
X131000000Y-93230000D01*
G75*
G02*
X131140000Y-93090000I140000J0D01*
G01*
X131420000Y-93090000D01*
G75*
G02*
X131560000Y-93230000I0J-140000D01*
G01*
X131560000Y-93570000D01*
G75*
G02*
X131420000Y-93710000I-140000J0D01*
G01*
X131140000Y-93710000D01*
G75*
G02*
X131000000Y-93570000I0J140000D01*
G01*
G37*
G36*
G01*
X130040000Y-93570000D02*
X130040000Y-93230000D01*
G75*
G02*
X130180000Y-93090000I140000J0D01*
G01*
X130460000Y-93090000D01*
G75*
G02*
X130600000Y-93230000I0J-140000D01*
G01*
X130600000Y-93570000D01*
G75*
G02*
X130460000Y-93710000I-140000J0D01*
G01*
X130180000Y-93710000D01*
G75*
G02*
X130040000Y-93570000I0J140000D01*
G01*
G37*
%TD*%
%TO.C,C5*%
G36*
G01*
X138840000Y-106970000D02*
X138840000Y-106630000D01*
G75*
G02*
X138980000Y-106490000I140000J0D01*
G01*
X139260000Y-106490000D01*
G75*
G02*
X139400000Y-106630000I0J-140000D01*
G01*
X139400000Y-106970000D01*
G75*
G02*
X139260000Y-107110000I-140000J0D01*
G01*
X138980000Y-107110000D01*
G75*
G02*
X138840000Y-106970000I0J140000D01*
G01*
G37*
G36*
G01*
X139800000Y-106970000D02*
X139800000Y-106630000D01*
G75*
G02*
X139940000Y-106490000I140000J0D01*
G01*
X140220000Y-106490000D01*
G75*
G02*
X140360000Y-106630000I0J-140000D01*
G01*
X140360000Y-106970000D01*
G75*
G02*
X140220000Y-107110000I-140000J0D01*
G01*
X139940000Y-107110000D01*
G75*
G02*
X139800000Y-106970000I0J140000D01*
G01*
G37*
%TD*%
%TO.C,C6*%
G36*
G01*
X140920000Y-94800000D02*
X140580000Y-94800000D01*
G75*
G02*
X140440000Y-94660000I0J140000D01*
G01*
X140440000Y-94380000D01*
G75*
G02*
X140580000Y-94240000I140000J0D01*
G01*
X140920000Y-94240000D01*
G75*
G02*
X141060000Y-94380000I0J-140000D01*
G01*
X141060000Y-94660000D01*
G75*
G02*
X140920000Y-94800000I-140000J0D01*
G01*
G37*
G36*
G01*
X140920000Y-95760000D02*
X140580000Y-95760000D01*
G75*
G02*
X140440000Y-95620000I0J140000D01*
G01*
X140440000Y-95340000D01*
G75*
G02*
X140580000Y-95200000I140000J0D01*
G01*
X140920000Y-95200000D01*
G75*
G02*
X141060000Y-95340000I0J-140000D01*
G01*
X141060000Y-95620000D01*
G75*
G02*
X140920000Y-95760000I-140000J0D01*
G01*
G37*
%TD*%
%TO.C,C7*%
G36*
G01*
X152850000Y-111400001D02*
X152850000Y-110099999D01*
G75*
G02*
X153099999Y-109850000I249999J0D01*
G01*
X153750001Y-109850000D01*
G75*
G02*
X154000000Y-110099999I0J-249999D01*
G01*
X154000000Y-111400001D01*
G75*
G02*
X153750001Y-111650000I-249999J0D01*
G01*
X153099999Y-111650000D01*
G75*
G02*
X152850000Y-111400001I0J249999D01*
G01*
G37*
G36*
G01*
X149900000Y-111400001D02*
X149900000Y-110099999D01*
G75*
G02*
X150149999Y-109850000I249999J0D01*
G01*
X150800001Y-109850000D01*
G75*
G02*
X151050000Y-110099999I0J-249999D01*
G01*
X151050000Y-111400001D01*
G75*
G02*
X150800001Y-111650000I-249999J0D01*
G01*
X150149999Y-111650000D01*
G75*
G02*
X149900000Y-111400001I0J249999D01*
G01*
G37*
%TD*%
%TO.C,C8*%
G36*
G01*
X127120000Y-97260000D02*
X126780000Y-97260000D01*
G75*
G02*
X126640000Y-97120000I0J140000D01*
G01*
X126640000Y-96840000D01*
G75*
G02*
X126780000Y-96700000I140000J0D01*
G01*
X127120000Y-96700000D01*
G75*
G02*
X127260000Y-96840000I0J-140000D01*
G01*
X127260000Y-97120000D01*
G75*
G02*
X127120000Y-97260000I-140000J0D01*
G01*
G37*
G36*
G01*
X127120000Y-96300000D02*
X126780000Y-96300000D01*
G75*
G02*
X126640000Y-96160000I0J140000D01*
G01*
X126640000Y-95880000D01*
G75*
G02*
X126780000Y-95740000I140000J0D01*
G01*
X127120000Y-95740000D01*
G75*
G02*
X127260000Y-95880000I0J-140000D01*
G01*
X127260000Y-96160000D01*
G75*
G02*
X127120000Y-96300000I-140000J0D01*
G01*
G37*
%TD*%
%TO.C,C9*%
G36*
G01*
X131000000Y-108080000D02*
X131000000Y-108420000D01*
G75*
G02*
X130860000Y-108560000I-140000J0D01*
G01*
X130580000Y-108560000D01*
G75*
G02*
X130440000Y-108420000I0J140000D01*
G01*
X130440000Y-108080000D01*
G75*
G02*
X130580000Y-107940000I140000J0D01*
G01*
X130860000Y-107940000D01*
G75*
G02*
X131000000Y-108080000I0J-140000D01*
G01*
G37*
G36*
G01*
X131960000Y-108080000D02*
X131960000Y-108420000D01*
G75*
G02*
X131820000Y-108560000I-140000J0D01*
G01*
X131540000Y-108560000D01*
G75*
G02*
X131400000Y-108420000I0J140000D01*
G01*
X131400000Y-108080000D01*
G75*
G02*
X131540000Y-107940000I140000J0D01*
G01*
X131820000Y-107940000D01*
G75*
G02*
X131960000Y-108080000I0J-140000D01*
G01*
G37*
%TD*%
%TO.C,C10*%
G36*
G01*
X123900000Y-96170000D02*
X123900000Y-95830000D01*
G75*
G02*
X124040000Y-95690000I140000J0D01*
G01*
X124320000Y-95690000D01*
G75*
G02*
X124460000Y-95830000I0J-140000D01*
G01*
X124460000Y-96170000D01*
G75*
G02*
X124320000Y-96310000I-140000J0D01*
G01*
X124040000Y-96310000D01*
G75*
G02*
X123900000Y-96170000I0J140000D01*
G01*
G37*
G36*
G01*
X122940000Y-96170000D02*
X122940000Y-95830000D01*
G75*
G02*
X123080000Y-95690000I140000J0D01*
G01*
X123360000Y-95690000D01*
G75*
G02*
X123500000Y-95830000I0J-140000D01*
G01*
X123500000Y-96170000D01*
G75*
G02*
X123360000Y-96310000I-140000J0D01*
G01*
X123080000Y-96310000D01*
G75*
G02*
X122940000Y-96170000I0J140000D01*
G01*
G37*
%TD*%
%TO.C,C11*%
G36*
G01*
X127120000Y-103760000D02*
X126780000Y-103760000D01*
G75*
G02*
X126640000Y-103620000I0J140000D01*
G01*
X126640000Y-103340000D01*
G75*
G02*
X126780000Y-103200000I140000J0D01*
G01*
X127120000Y-103200000D01*
G75*
G02*
X127260000Y-103340000I0J-140000D01*
G01*
X127260000Y-103620000D01*
G75*
G02*
X127120000Y-103760000I-140000J0D01*
G01*
G37*
G36*
G01*
X127120000Y-102800000D02*
X126780000Y-102800000D01*
G75*
G02*
X126640000Y-102660000I0J140000D01*
G01*
X126640000Y-102380000D01*
G75*
G02*
X126780000Y-102240000I140000J0D01*
G01*
X127120000Y-102240000D01*
G75*
G02*
X127260000Y-102380000I0J-140000D01*
G01*
X127260000Y-102660000D01*
G75*
G02*
X127120000Y-102800000I-140000J0D01*
G01*
G37*
%TD*%
%TO.C,C13*%
G36*
G01*
X124460000Y-101280000D02*
X124460000Y-101620000D01*
G75*
G02*
X124320000Y-101760000I-140000J0D01*
G01*
X124040000Y-101760000D01*
G75*
G02*
X123900000Y-101620000I0J140000D01*
G01*
X123900000Y-101280000D01*
G75*
G02*
X124040000Y-101140000I140000J0D01*
G01*
X124320000Y-101140000D01*
G75*
G02*
X124460000Y-101280000I0J-140000D01*
G01*
G37*
G36*
G01*
X123500000Y-101280000D02*
X123500000Y-101620000D01*
G75*
G02*
X123360000Y-101760000I-140000J0D01*
G01*
X123080000Y-101760000D01*
G75*
G02*
X122940000Y-101620000I0J140000D01*
G01*
X122940000Y-101280000D01*
G75*
G02*
X123080000Y-101140000I140000J0D01*
G01*
X123360000Y-101140000D01*
G75*
G02*
X123500000Y-101280000I0J-140000D01*
G01*
G37*
%TD*%
%TO.C,C14*%
G36*
G01*
X142875000Y-120850001D02*
X142875000Y-119549999D01*
G75*
G02*
X143124999Y-119300000I249999J0D01*
G01*
X143775001Y-119300000D01*
G75*
G02*
X144025000Y-119549999I0J-249999D01*
G01*
X144025000Y-120850001D01*
G75*
G02*
X143775001Y-121100000I-249999J0D01*
G01*
X143124999Y-121100000D01*
G75*
G02*
X142875000Y-120850001I0J249999D01*
G01*
G37*
G36*
G01*
X145825000Y-120850001D02*
X145825000Y-119549999D01*
G75*
G02*
X146074999Y-119300000I249999J0D01*
G01*
X146725001Y-119300000D01*
G75*
G02*
X146975000Y-119549999I0J-249999D01*
G01*
X146975000Y-120850001D01*
G75*
G02*
X146725001Y-121100000I-249999J0D01*
G01*
X146074999Y-121100000D01*
G75*
G02*
X145825000Y-120850001I0J249999D01*
G01*
G37*
%TD*%
%TO.C,C15*%
G36*
G01*
X142900000Y-123600001D02*
X142900000Y-122299999D01*
G75*
G02*
X143149999Y-122050000I249999J0D01*
G01*
X143800001Y-122050000D01*
G75*
G02*
X144050000Y-122299999I0J-249999D01*
G01*
X144050000Y-123600001D01*
G75*
G02*
X143800001Y-123850000I-249999J0D01*
G01*
X143149999Y-123850000D01*
G75*
G02*
X142900000Y-123600001I0J249999D01*
G01*
G37*
G36*
G01*
X145850000Y-123600001D02*
X145850000Y-122299999D01*
G75*
G02*
X146099999Y-122050000I249999J0D01*
G01*
X146750001Y-122050000D01*
G75*
G02*
X147000000Y-122299999I0J-249999D01*
G01*
X147000000Y-123600001D01*
G75*
G02*
X146750001Y-123850000I-249999J0D01*
G01*
X146099999Y-123850000D01*
G75*
G02*
X145850000Y-123600001I0J249999D01*
G01*
G37*
%TD*%
%TO.C,C16*%
G36*
G01*
X147100000Y-115575000D02*
X147600000Y-115575000D01*
G75*
G02*
X147825000Y-115800000I0J-225000D01*
G01*
X147825000Y-116250000D01*
G75*
G02*
X147600000Y-116475000I-225000J0D01*
G01*
X147100000Y-116475000D01*
G75*
G02*
X146875000Y-116250000I0J225000D01*
G01*
X146875000Y-115800000D01*
G75*
G02*
X147100000Y-115575000I225000J0D01*
G01*
G37*
G36*
G01*
X147100000Y-114025000D02*
X147600000Y-114025000D01*
G75*
G02*
X147825000Y-114250000I0J-225000D01*
G01*
X147825000Y-114700000D01*
G75*
G02*
X147600000Y-114925000I-225000J0D01*
G01*
X147100000Y-114925000D01*
G75*
G02*
X146875000Y-114700000I0J225000D01*
G01*
X146875000Y-114250000D01*
G75*
G02*
X147100000Y-114025000I225000J0D01*
G01*
G37*
%TD*%
%TO.C,D1*%
G36*
G01*
X127956250Y-108225000D02*
X127443750Y-108225000D01*
G75*
G02*
X127225000Y-108006250I0J218750D01*
G01*
X127225000Y-107568750D01*
G75*
G02*
X127443750Y-107350000I218750J0D01*
G01*
X127956250Y-107350000D01*
G75*
G02*
X128175000Y-107568750I0J-218750D01*
G01*
X128175000Y-108006250D01*
G75*
G02*
X127956250Y-108225000I-218750J0D01*
G01*
G37*
G36*
G01*
X127956250Y-106650000D02*
X127443750Y-106650000D01*
G75*
G02*
X127225000Y-106431250I0J218750D01*
G01*
X127225000Y-105993750D01*
G75*
G02*
X127443750Y-105775000I218750J0D01*
G01*
X127956250Y-105775000D01*
G75*
G02*
X128175000Y-105993750I0J-218750D01*
G01*
X128175000Y-106431250D01*
G75*
G02*
X127956250Y-106650000I-218750J0D01*
G01*
G37*
%TD*%
D12*
%TO.C,D2*%
X155400000Y-103850000D03*
X158700000Y-103850000D03*
%TD*%
%TO.C,D3*%
X146600000Y-110900000D03*
X143300000Y-110900000D03*
%TD*%
%TO.C,D4*%
G36*
G01*
X152110000Y-78163750D02*
X152110000Y-78676250D01*
G75*
G02*
X151891250Y-78895000I-218750J0D01*
G01*
X151453750Y-78895000D01*
G75*
G02*
X151235000Y-78676250I0J218750D01*
G01*
X151235000Y-78163750D01*
G75*
G02*
X151453750Y-77945000I218750J0D01*
G01*
X151891250Y-77945000D01*
G75*
G02*
X152110000Y-78163750I0J-218750D01*
G01*
G37*
G36*
G01*
X153685000Y-78163750D02*
X153685000Y-78676250D01*
G75*
G02*
X153466250Y-78895000I-218750J0D01*
G01*
X153028750Y-78895000D01*
G75*
G02*
X152810000Y-78676250I0J218750D01*
G01*
X152810000Y-78163750D01*
G75*
G02*
X153028750Y-77945000I218750J0D01*
G01*
X153466250Y-77945000D01*
G75*
G02*
X153685000Y-78163750I0J-218750D01*
G01*
G37*
%TD*%
%TO.C,F1*%
G36*
G01*
X149925000Y-104475000D02*
X149925000Y-103225000D01*
G75*
G02*
X150175000Y-102975000I250000J0D01*
G01*
X150925000Y-102975000D01*
G75*
G02*
X151175000Y-103225000I0J-250000D01*
G01*
X151175000Y-104475000D01*
G75*
G02*
X150925000Y-104725000I-250000J0D01*
G01*
X150175000Y-104725000D01*
G75*
G02*
X149925000Y-104475000I0J250000D01*
G01*
G37*
G36*
G01*
X152725000Y-104475000D02*
X152725000Y-103225000D01*
G75*
G02*
X152975000Y-102975000I250000J0D01*
G01*
X153725000Y-102975000D01*
G75*
G02*
X153975000Y-103225000I0J-250000D01*
G01*
X153975000Y-104475000D01*
G75*
G02*
X153725000Y-104725000I-250000J0D01*
G01*
X152975000Y-104725000D01*
G75*
G02*
X152725000Y-104475000I0J250000D01*
G01*
G37*
%TD*%
%TO.C,FB1*%
G36*
G01*
X150881250Y-109250000D02*
X150118750Y-109250000D01*
G75*
G02*
X149900000Y-109031250I0J218750D01*
G01*
X149900000Y-108593750D01*
G75*
G02*
X150118750Y-108375000I218750J0D01*
G01*
X150881250Y-108375000D01*
G75*
G02*
X151100000Y-108593750I0J-218750D01*
G01*
X151100000Y-109031250D01*
G75*
G02*
X150881250Y-109250000I-218750J0D01*
G01*
G37*
G36*
G01*
X150881250Y-107125000D02*
X150118750Y-107125000D01*
G75*
G02*
X149900000Y-106906250I0J218750D01*
G01*
X149900000Y-106468750D01*
G75*
G02*
X150118750Y-106250000I218750J0D01*
G01*
X150881250Y-106250000D01*
G75*
G02*
X151100000Y-106468750I0J-218750D01*
G01*
X151100000Y-106906250D01*
G75*
G02*
X150881250Y-107125000I-218750J0D01*
G01*
G37*
%TD*%
D13*
%TO.C,J4*%
X141660000Y-81550000D03*
X141660000Y-77650000D03*
X142930000Y-81550000D03*
X142930000Y-77650000D03*
X144200000Y-81550000D03*
X144200000Y-77650000D03*
X145470000Y-81550000D03*
X145470000Y-77650000D03*
X146740000Y-81550000D03*
X146740000Y-77650000D03*
%TD*%
%TO.C,L1*%
G36*
G01*
X123920000Y-104672500D02*
X123920000Y-104327500D01*
G75*
G02*
X124067500Y-104180000I147500J0D01*
G01*
X124362500Y-104180000D01*
G75*
G02*
X124510000Y-104327500I0J-147500D01*
G01*
X124510000Y-104672500D01*
G75*
G02*
X124362500Y-104820000I-147500J0D01*
G01*
X124067500Y-104820000D01*
G75*
G02*
X123920000Y-104672500I0J147500D01*
G01*
G37*
G36*
G01*
X124890000Y-104672500D02*
X124890000Y-104327500D01*
G75*
G02*
X125037500Y-104180000I147500J0D01*
G01*
X125332500Y-104180000D01*
G75*
G02*
X125480000Y-104327500I0J-147500D01*
G01*
X125480000Y-104672500D01*
G75*
G02*
X125332500Y-104820000I-147500J0D01*
G01*
X125037500Y-104820000D01*
G75*
G02*
X124890000Y-104672500I0J147500D01*
G01*
G37*
%TD*%
D14*
%TO.C,L2*%
X143600000Y-113400000D03*
X143600000Y-117500000D03*
%TD*%
D15*
%TO.C,Q1*%
X155250000Y-106650000D03*
X153350000Y-106650000D03*
X154300000Y-108650000D03*
%TD*%
%TO.C,R1*%
G36*
G01*
X126225000Y-108225000D02*
X125675000Y-108225000D01*
G75*
G02*
X125475000Y-108025000I0J200000D01*
G01*
X125475000Y-107625000D01*
G75*
G02*
X125675000Y-107425000I200000J0D01*
G01*
X126225000Y-107425000D01*
G75*
G02*
X126425000Y-107625000I0J-200000D01*
G01*
X126425000Y-108025000D01*
G75*
G02*
X126225000Y-108225000I-200000J0D01*
G01*
G37*
G36*
G01*
X126225000Y-106575000D02*
X125675000Y-106575000D01*
G75*
G02*
X125475000Y-106375000I0J200000D01*
G01*
X125475000Y-105975000D01*
G75*
G02*
X125675000Y-105775000I200000J0D01*
G01*
X126225000Y-105775000D01*
G75*
G02*
X126425000Y-105975000I0J-200000D01*
G01*
X126425000Y-106375000D01*
G75*
G02*
X126225000Y-106575000I-200000J0D01*
G01*
G37*
%TD*%
%TO.C,R2*%
G36*
G01*
X152875000Y-114225000D02*
X153425000Y-114225000D01*
G75*
G02*
X153625000Y-114425000I0J-200000D01*
G01*
X153625000Y-114825000D01*
G75*
G02*
X153425000Y-115025000I-200000J0D01*
G01*
X152875000Y-115025000D01*
G75*
G02*
X152675000Y-114825000I0J200000D01*
G01*
X152675000Y-114425000D01*
G75*
G02*
X152875000Y-114225000I200000J0D01*
G01*
G37*
G36*
G01*
X152875000Y-112575000D02*
X153425000Y-112575000D01*
G75*
G02*
X153625000Y-112775000I0J-200000D01*
G01*
X153625000Y-113175000D01*
G75*
G02*
X153425000Y-113375000I-200000J0D01*
G01*
X152875000Y-113375000D01*
G75*
G02*
X152675000Y-113175000I0J200000D01*
G01*
X152675000Y-112775000D01*
G75*
G02*
X152875000Y-112575000I200000J0D01*
G01*
G37*
%TD*%
%TO.C,R3*%
G36*
G01*
X155075000Y-115025000D02*
X154525000Y-115025000D01*
G75*
G02*
X154325000Y-114825000I0J200000D01*
G01*
X154325000Y-114425000D01*
G75*
G02*
X154525000Y-114225000I200000J0D01*
G01*
X155075000Y-114225000D01*
G75*
G02*
X155275000Y-114425000I0J-200000D01*
G01*
X155275000Y-114825000D01*
G75*
G02*
X155075000Y-115025000I-200000J0D01*
G01*
G37*
G36*
G01*
X155075000Y-113375000D02*
X154525000Y-113375000D01*
G75*
G02*
X154325000Y-113175000I0J200000D01*
G01*
X154325000Y-112775000D01*
G75*
G02*
X154525000Y-112575000I200000J0D01*
G01*
X155075000Y-112575000D01*
G75*
G02*
X155275000Y-112775000I0J-200000D01*
G01*
X155275000Y-113175000D01*
G75*
G02*
X155075000Y-113375000I-200000J0D01*
G01*
G37*
%TD*%
%TO.C,R4*%
G36*
G01*
X115620000Y-91985000D02*
X115620000Y-91615000D01*
G75*
G02*
X115755000Y-91480000I135000J0D01*
G01*
X116025000Y-91480000D01*
G75*
G02*
X116160000Y-91615000I0J-135000D01*
G01*
X116160000Y-91985000D01*
G75*
G02*
X116025000Y-92120000I-135000J0D01*
G01*
X115755000Y-92120000D01*
G75*
G02*
X115620000Y-91985000I0J135000D01*
G01*
G37*
G36*
G01*
X116640000Y-91985000D02*
X116640000Y-91615000D01*
G75*
G02*
X116775000Y-91480000I135000J0D01*
G01*
X117045000Y-91480000D01*
G75*
G02*
X117180000Y-91615000I0J-135000D01*
G01*
X117180000Y-91985000D01*
G75*
G02*
X117045000Y-92120000I-135000J0D01*
G01*
X116775000Y-92120000D01*
G75*
G02*
X116640000Y-91985000I0J135000D01*
G01*
G37*
%TD*%
%TO.C,R5*%
G36*
G01*
X134780000Y-91265000D02*
X134780000Y-91635000D01*
G75*
G02*
X134645000Y-91770000I-135000J0D01*
G01*
X134375000Y-91770000D01*
G75*
G02*
X134240000Y-91635000I0J135000D01*
G01*
X134240000Y-91265000D01*
G75*
G02*
X134375000Y-91130000I135000J0D01*
G01*
X134645000Y-91130000D01*
G75*
G02*
X134780000Y-91265000I0J-135000D01*
G01*
G37*
G36*
G01*
X133760000Y-91265000D02*
X133760000Y-91635000D01*
G75*
G02*
X133625000Y-91770000I-135000J0D01*
G01*
X133355000Y-91770000D01*
G75*
G02*
X133220000Y-91635000I0J135000D01*
G01*
X133220000Y-91265000D01*
G75*
G02*
X133355000Y-91130000I135000J0D01*
G01*
X133625000Y-91130000D01*
G75*
G02*
X133760000Y-91265000I0J-135000D01*
G01*
G37*
%TD*%
%TO.C,R6*%
G36*
G01*
X126210000Y-99637000D02*
X126210000Y-100007000D01*
G75*
G02*
X126075000Y-100142000I-135000J0D01*
G01*
X125805000Y-100142000D01*
G75*
G02*
X125670000Y-100007000I0J135000D01*
G01*
X125670000Y-99637000D01*
G75*
G02*
X125805000Y-99502000I135000J0D01*
G01*
X126075000Y-99502000D01*
G75*
G02*
X126210000Y-99637000I0J-135000D01*
G01*
G37*
G36*
G01*
X127230000Y-99637000D02*
X127230000Y-100007000D01*
G75*
G02*
X127095000Y-100142000I-135000J0D01*
G01*
X126825000Y-100142000D01*
G75*
G02*
X126690000Y-100007000I0J135000D01*
G01*
X126690000Y-99637000D01*
G75*
G02*
X126825000Y-99502000I135000J0D01*
G01*
X127095000Y-99502000D01*
G75*
G02*
X127230000Y-99637000I0J-135000D01*
G01*
G37*
%TD*%
%TO.C,R7*%
G36*
G01*
X132240000Y-91635000D02*
X132240000Y-91265000D01*
G75*
G02*
X132375000Y-91130000I135000J0D01*
G01*
X132645000Y-91130000D01*
G75*
G02*
X132780000Y-91265000I0J-135000D01*
G01*
X132780000Y-91635000D01*
G75*
G02*
X132645000Y-91770000I-135000J0D01*
G01*
X132375000Y-91770000D01*
G75*
G02*
X132240000Y-91635000I0J135000D01*
G01*
G37*
G36*
G01*
X131220000Y-91635000D02*
X131220000Y-91265000D01*
G75*
G02*
X131355000Y-91130000I135000J0D01*
G01*
X131625000Y-91130000D01*
G75*
G02*
X131760000Y-91265000I0J-135000D01*
G01*
X131760000Y-91635000D01*
G75*
G02*
X131625000Y-91770000I-135000J0D01*
G01*
X131355000Y-91770000D01*
G75*
G02*
X131220000Y-91635000I0J135000D01*
G01*
G37*
%TD*%
%TO.C,R8*%
G36*
G01*
X153425000Y-116675000D02*
X152875000Y-116675000D01*
G75*
G02*
X152675000Y-116475000I0J200000D01*
G01*
X152675000Y-116075000D01*
G75*
G02*
X152875000Y-115875000I200000J0D01*
G01*
X153425000Y-115875000D01*
G75*
G02*
X153625000Y-116075000I0J-200000D01*
G01*
X153625000Y-116475000D01*
G75*
G02*
X153425000Y-116675000I-200000J0D01*
G01*
G37*
G36*
G01*
X153425000Y-118325000D02*
X152875000Y-118325000D01*
G75*
G02*
X152675000Y-118125000I0J200000D01*
G01*
X152675000Y-117725000D01*
G75*
G02*
X152875000Y-117525000I200000J0D01*
G01*
X153425000Y-117525000D01*
G75*
G02*
X153625000Y-117725000I0J-200000D01*
G01*
X153625000Y-118125000D01*
G75*
G02*
X153425000Y-118325000I-200000J0D01*
G01*
G37*
%TD*%
%TO.C,R9*%
G36*
G01*
X154525000Y-115875000D02*
X155075000Y-115875000D01*
G75*
G02*
X155275000Y-116075000I0J-200000D01*
G01*
X155275000Y-116475000D01*
G75*
G02*
X155075000Y-116675000I-200000J0D01*
G01*
X154525000Y-116675000D01*
G75*
G02*
X154325000Y-116475000I0J200000D01*
G01*
X154325000Y-116075000D01*
G75*
G02*
X154525000Y-115875000I200000J0D01*
G01*
G37*
G36*
G01*
X154525000Y-117525000D02*
X155075000Y-117525000D01*
G75*
G02*
X155275000Y-117725000I0J-200000D01*
G01*
X155275000Y-118125000D01*
G75*
G02*
X155075000Y-118325000I-200000J0D01*
G01*
X154525000Y-118325000D01*
G75*
G02*
X154325000Y-118125000I0J200000D01*
G01*
X154325000Y-117725000D01*
G75*
G02*
X154525000Y-117525000I200000J0D01*
G01*
G37*
%TD*%
%TO.C,R10*%
G36*
G01*
X156675000Y-116675000D02*
X156125000Y-116675000D01*
G75*
G02*
X155925000Y-116475000I0J200000D01*
G01*
X155925000Y-116075000D01*
G75*
G02*
X156125000Y-115875000I200000J0D01*
G01*
X156675000Y-115875000D01*
G75*
G02*
X156875000Y-116075000I0J-200000D01*
G01*
X156875000Y-116475000D01*
G75*
G02*
X156675000Y-116675000I-200000J0D01*
G01*
G37*
G36*
G01*
X156675000Y-118325000D02*
X156125000Y-118325000D01*
G75*
G02*
X155925000Y-118125000I0J200000D01*
G01*
X155925000Y-117725000D01*
G75*
G02*
X156125000Y-117525000I200000J0D01*
G01*
X156675000Y-117525000D01*
G75*
G02*
X156875000Y-117725000I0J-200000D01*
G01*
X156875000Y-118125000D01*
G75*
G02*
X156675000Y-118325000I-200000J0D01*
G01*
G37*
%TD*%
%TO.C,R11*%
G36*
G01*
X153685000Y-80185000D02*
X153685000Y-80735000D01*
G75*
G02*
X153485000Y-80935000I-200000J0D01*
G01*
X153085000Y-80935000D01*
G75*
G02*
X152885000Y-80735000I0J200000D01*
G01*
X152885000Y-80185000D01*
G75*
G02*
X153085000Y-79985000I200000J0D01*
G01*
X153485000Y-79985000D01*
G75*
G02*
X153685000Y-80185000I0J-200000D01*
G01*
G37*
G36*
G01*
X152035000Y-80185000D02*
X152035000Y-80735000D01*
G75*
G02*
X151835000Y-80935000I-200000J0D01*
G01*
X151435000Y-80935000D01*
G75*
G02*
X151235000Y-80735000I0J200000D01*
G01*
X151235000Y-80185000D01*
G75*
G02*
X151435000Y-79985000I200000J0D01*
G01*
X151835000Y-79985000D01*
G75*
G02*
X152035000Y-80185000I0J-200000D01*
G01*
G37*
%TD*%
D16*
%TO.C,SW1*%
X113680000Y-88800000D03*
X113680000Y-91800000D03*
X113680000Y-93300000D03*
D17*
X110820000Y-87400000D03*
X110820000Y-94700000D03*
X113030000Y-94700000D03*
X113030000Y-87400000D03*
%TD*%
%TO.C,U1*%
G36*
G01*
X127750000Y-97075000D02*
X127750000Y-96925000D01*
G75*
G02*
X127825000Y-96850000I75000J0D01*
G01*
X129225000Y-96850000D01*
G75*
G02*
X129300000Y-96925000I0J-75000D01*
G01*
X129300000Y-97075000D01*
G75*
G02*
X129225000Y-97150000I-75000J0D01*
G01*
X127825000Y-97150000D01*
G75*
G02*
X127750000Y-97075000I0J75000D01*
G01*
G37*
G36*
G01*
X127750000Y-97575000D02*
X127750000Y-97425000D01*
G75*
G02*
X127825000Y-97350000I75000J0D01*
G01*
X129225000Y-97350000D01*
G75*
G02*
X129300000Y-97425000I0J-75000D01*
G01*
X129300000Y-97575000D01*
G75*
G02*
X129225000Y-97650000I-75000J0D01*
G01*
X127825000Y-97650000D01*
G75*
G02*
X127750000Y-97575000I0J75000D01*
G01*
G37*
G36*
G01*
X127750000Y-98075000D02*
X127750000Y-97925000D01*
G75*
G02*
X127825000Y-97850000I75000J0D01*
G01*
X129225000Y-97850000D01*
G75*
G02*
X129300000Y-97925000I0J-75000D01*
G01*
X129300000Y-98075000D01*
G75*
G02*
X129225000Y-98150000I-75000J0D01*
G01*
X127825000Y-98150000D01*
G75*
G02*
X127750000Y-98075000I0J75000D01*
G01*
G37*
G36*
G01*
X127750000Y-98575000D02*
X127750000Y-98425000D01*
G75*
G02*
X127825000Y-98350000I75000J0D01*
G01*
X129225000Y-98350000D01*
G75*
G02*
X129300000Y-98425000I0J-75000D01*
G01*
X129300000Y-98575000D01*
G75*
G02*
X129225000Y-98650000I-75000J0D01*
G01*
X127825000Y-98650000D01*
G75*
G02*
X127750000Y-98575000I0J75000D01*
G01*
G37*
G36*
G01*
X127750000Y-99075000D02*
X127750000Y-98925000D01*
G75*
G02*
X127825000Y-98850000I75000J0D01*
G01*
X129225000Y-98850000D01*
G75*
G02*
X129300000Y-98925000I0J-75000D01*
G01*
X129300000Y-99075000D01*
G75*
G02*
X129225000Y-99150000I-75000J0D01*
G01*
X127825000Y-99150000D01*
G75*
G02*
X127750000Y-99075000I0J75000D01*
G01*
G37*
G36*
G01*
X127750000Y-99575000D02*
X127750000Y-99425000D01*
G75*
G02*
X127825000Y-99350000I75000J0D01*
G01*
X129225000Y-99350000D01*
G75*
G02*
X129300000Y-99425000I0J-75000D01*
G01*
X129300000Y-99575000D01*
G75*
G02*
X129225000Y-99650000I-75000J0D01*
G01*
X127825000Y-99650000D01*
G75*
G02*
X127750000Y-99575000I0J75000D01*
G01*
G37*
G36*
G01*
X127750000Y-100075000D02*
X127750000Y-99925000D01*
G75*
G02*
X127825000Y-99850000I75000J0D01*
G01*
X129225000Y-99850000D01*
G75*
G02*
X129300000Y-99925000I0J-75000D01*
G01*
X129300000Y-100075000D01*
G75*
G02*
X129225000Y-100150000I-75000J0D01*
G01*
X127825000Y-100150000D01*
G75*
G02*
X127750000Y-100075000I0J75000D01*
G01*
G37*
G36*
G01*
X127750000Y-100575000D02*
X127750000Y-100425000D01*
G75*
G02*
X127825000Y-100350000I75000J0D01*
G01*
X129225000Y-100350000D01*
G75*
G02*
X129300000Y-100425000I0J-75000D01*
G01*
X129300000Y-100575000D01*
G75*
G02*
X129225000Y-100650000I-75000J0D01*
G01*
X127825000Y-100650000D01*
G75*
G02*
X127750000Y-100575000I0J75000D01*
G01*
G37*
G36*
G01*
X127750000Y-101075000D02*
X127750000Y-100925000D01*
G75*
G02*
X127825000Y-100850000I75000J0D01*
G01*
X129225000Y-100850000D01*
G75*
G02*
X129300000Y-100925000I0J-75000D01*
G01*
X129300000Y-101075000D01*
G75*
G02*
X129225000Y-101150000I-75000J0D01*
G01*
X127825000Y-101150000D01*
G75*
G02*
X127750000Y-101075000I0J75000D01*
G01*
G37*
G36*
G01*
X127750000Y-101575000D02*
X127750000Y-101425000D01*
G75*
G02*
X127825000Y-101350000I75000J0D01*
G01*
X129225000Y-101350000D01*
G75*
G02*
X129300000Y-101425000I0J-75000D01*
G01*
X129300000Y-101575000D01*
G75*
G02*
X129225000Y-101650000I-75000J0D01*
G01*
X127825000Y-101650000D01*
G75*
G02*
X127750000Y-101575000I0J75000D01*
G01*
G37*
G36*
G01*
X127750000Y-102075000D02*
X127750000Y-101925000D01*
G75*
G02*
X127825000Y-101850000I75000J0D01*
G01*
X129225000Y-101850000D01*
G75*
G02*
X129300000Y-101925000I0J-75000D01*
G01*
X129300000Y-102075000D01*
G75*
G02*
X129225000Y-102150000I-75000J0D01*
G01*
X127825000Y-102150000D01*
G75*
G02*
X127750000Y-102075000I0J75000D01*
G01*
G37*
G36*
G01*
X127750000Y-102575000D02*
X127750000Y-102425000D01*
G75*
G02*
X127825000Y-102350000I75000J0D01*
G01*
X129225000Y-102350000D01*
G75*
G02*
X129300000Y-102425000I0J-75000D01*
G01*
X129300000Y-102575000D01*
G75*
G02*
X129225000Y-102650000I-75000J0D01*
G01*
X127825000Y-102650000D01*
G75*
G02*
X127750000Y-102575000I0J75000D01*
G01*
G37*
G36*
G01*
X127750000Y-103075000D02*
X127750000Y-102925000D01*
G75*
G02*
X127825000Y-102850000I75000J0D01*
G01*
X129225000Y-102850000D01*
G75*
G02*
X129300000Y-102925000I0J-75000D01*
G01*
X129300000Y-103075000D01*
G75*
G02*
X129225000Y-103150000I-75000J0D01*
G01*
X127825000Y-103150000D01*
G75*
G02*
X127750000Y-103075000I0J75000D01*
G01*
G37*
G36*
G01*
X127750000Y-103575000D02*
X127750000Y-103425000D01*
G75*
G02*
X127825000Y-103350000I75000J0D01*
G01*
X129225000Y-103350000D01*
G75*
G02*
X129300000Y-103425000I0J-75000D01*
G01*
X129300000Y-103575000D01*
G75*
G02*
X129225000Y-103650000I-75000J0D01*
G01*
X127825000Y-103650000D01*
G75*
G02*
X127750000Y-103575000I0J75000D01*
G01*
G37*
G36*
G01*
X127750000Y-104075000D02*
X127750000Y-103925000D01*
G75*
G02*
X127825000Y-103850000I75000J0D01*
G01*
X129225000Y-103850000D01*
G75*
G02*
X129300000Y-103925000I0J-75000D01*
G01*
X129300000Y-104075000D01*
G75*
G02*
X129225000Y-104150000I-75000J0D01*
G01*
X127825000Y-104150000D01*
G75*
G02*
X127750000Y-104075000I0J75000D01*
G01*
G37*
G36*
G01*
X127750000Y-104575000D02*
X127750000Y-104425000D01*
G75*
G02*
X127825000Y-104350000I75000J0D01*
G01*
X129225000Y-104350000D01*
G75*
G02*
X129300000Y-104425000I0J-75000D01*
G01*
X129300000Y-104575000D01*
G75*
G02*
X129225000Y-104650000I-75000J0D01*
G01*
X127825000Y-104650000D01*
G75*
G02*
X127750000Y-104575000I0J75000D01*
G01*
G37*
G36*
G01*
X130300000Y-107125000D02*
X130300000Y-105725000D01*
G75*
G02*
X130375000Y-105650000I75000J0D01*
G01*
X130525000Y-105650000D01*
G75*
G02*
X130600000Y-105725000I0J-75000D01*
G01*
X130600000Y-107125000D01*
G75*
G02*
X130525000Y-107200000I-75000J0D01*
G01*
X130375000Y-107200000D01*
G75*
G02*
X130300000Y-107125000I0J75000D01*
G01*
G37*
G36*
G01*
X130800000Y-107125000D02*
X130800000Y-105725000D01*
G75*
G02*
X130875000Y-105650000I75000J0D01*
G01*
X131025000Y-105650000D01*
G75*
G02*
X131100000Y-105725000I0J-75000D01*
G01*
X131100000Y-107125000D01*
G75*
G02*
X131025000Y-107200000I-75000J0D01*
G01*
X130875000Y-107200000D01*
G75*
G02*
X130800000Y-107125000I0J75000D01*
G01*
G37*
G36*
G01*
X131300000Y-107125000D02*
X131300000Y-105725000D01*
G75*
G02*
X131375000Y-105650000I75000J0D01*
G01*
X131525000Y-105650000D01*
G75*
G02*
X131600000Y-105725000I0J-75000D01*
G01*
X131600000Y-107125000D01*
G75*
G02*
X131525000Y-107200000I-75000J0D01*
G01*
X131375000Y-107200000D01*
G75*
G02*
X131300000Y-107125000I0J75000D01*
G01*
G37*
G36*
G01*
X131800000Y-107125000D02*
X131800000Y-105725000D01*
G75*
G02*
X131875000Y-105650000I75000J0D01*
G01*
X132025000Y-105650000D01*
G75*
G02*
X132100000Y-105725000I0J-75000D01*
G01*
X132100000Y-107125000D01*
G75*
G02*
X132025000Y-107200000I-75000J0D01*
G01*
X131875000Y-107200000D01*
G75*
G02*
X131800000Y-107125000I0J75000D01*
G01*
G37*
G36*
G01*
X132300000Y-107125000D02*
X132300000Y-105725000D01*
G75*
G02*
X132375000Y-105650000I75000J0D01*
G01*
X132525000Y-105650000D01*
G75*
G02*
X132600000Y-105725000I0J-75000D01*
G01*
X132600000Y-107125000D01*
G75*
G02*
X132525000Y-107200000I-75000J0D01*
G01*
X132375000Y-107200000D01*
G75*
G02*
X132300000Y-107125000I0J75000D01*
G01*
G37*
G36*
G01*
X132800000Y-107125000D02*
X132800000Y-105725000D01*
G75*
G02*
X132875000Y-105650000I75000J0D01*
G01*
X133025000Y-105650000D01*
G75*
G02*
X133100000Y-105725000I0J-75000D01*
G01*
X133100000Y-107125000D01*
G75*
G02*
X133025000Y-107200000I-75000J0D01*
G01*
X132875000Y-107200000D01*
G75*
G02*
X132800000Y-107125000I0J75000D01*
G01*
G37*
G36*
G01*
X133300000Y-107125000D02*
X133300000Y-105725000D01*
G75*
G02*
X133375000Y-105650000I75000J0D01*
G01*
X133525000Y-105650000D01*
G75*
G02*
X133600000Y-105725000I0J-75000D01*
G01*
X133600000Y-107125000D01*
G75*
G02*
X133525000Y-107200000I-75000J0D01*
G01*
X133375000Y-107200000D01*
G75*
G02*
X133300000Y-107125000I0J75000D01*
G01*
G37*
G36*
G01*
X133800000Y-107125000D02*
X133800000Y-105725000D01*
G75*
G02*
X133875000Y-105650000I75000J0D01*
G01*
X134025000Y-105650000D01*
G75*
G02*
X134100000Y-105725000I0J-75000D01*
G01*
X134100000Y-107125000D01*
G75*
G02*
X134025000Y-107200000I-75000J0D01*
G01*
X133875000Y-107200000D01*
G75*
G02*
X133800000Y-107125000I0J75000D01*
G01*
G37*
G36*
G01*
X134300000Y-107125000D02*
X134300000Y-105725000D01*
G75*
G02*
X134375000Y-105650000I75000J0D01*
G01*
X134525000Y-105650000D01*
G75*
G02*
X134600000Y-105725000I0J-75000D01*
G01*
X134600000Y-107125000D01*
G75*
G02*
X134525000Y-107200000I-75000J0D01*
G01*
X134375000Y-107200000D01*
G75*
G02*
X134300000Y-107125000I0J75000D01*
G01*
G37*
G36*
G01*
X134800000Y-107125000D02*
X134800000Y-105725000D01*
G75*
G02*
X134875000Y-105650000I75000J0D01*
G01*
X135025000Y-105650000D01*
G75*
G02*
X135100000Y-105725000I0J-75000D01*
G01*
X135100000Y-107125000D01*
G75*
G02*
X135025000Y-107200000I-75000J0D01*
G01*
X134875000Y-107200000D01*
G75*
G02*
X134800000Y-107125000I0J75000D01*
G01*
G37*
G36*
G01*
X135300000Y-107125000D02*
X135300000Y-105725000D01*
G75*
G02*
X135375000Y-105650000I75000J0D01*
G01*
X135525000Y-105650000D01*
G75*
G02*
X135600000Y-105725000I0J-75000D01*
G01*
X135600000Y-107125000D01*
G75*
G02*
X135525000Y-107200000I-75000J0D01*
G01*
X135375000Y-107200000D01*
G75*
G02*
X135300000Y-107125000I0J75000D01*
G01*
G37*
G36*
G01*
X135800000Y-107125000D02*
X135800000Y-105725000D01*
G75*
G02*
X135875000Y-105650000I75000J0D01*
G01*
X136025000Y-105650000D01*
G75*
G02*
X136100000Y-105725000I0J-75000D01*
G01*
X136100000Y-107125000D01*
G75*
G02*
X136025000Y-107200000I-75000J0D01*
G01*
X135875000Y-107200000D01*
G75*
G02*
X135800000Y-107125000I0J75000D01*
G01*
G37*
G36*
G01*
X136300000Y-107125000D02*
X136300000Y-105725000D01*
G75*
G02*
X136375000Y-105650000I75000J0D01*
G01*
X136525000Y-105650000D01*
G75*
G02*
X136600000Y-105725000I0J-75000D01*
G01*
X136600000Y-107125000D01*
G75*
G02*
X136525000Y-107200000I-75000J0D01*
G01*
X136375000Y-107200000D01*
G75*
G02*
X136300000Y-107125000I0J75000D01*
G01*
G37*
G36*
G01*
X136800000Y-107125000D02*
X136800000Y-105725000D01*
G75*
G02*
X136875000Y-105650000I75000J0D01*
G01*
X137025000Y-105650000D01*
G75*
G02*
X137100000Y-105725000I0J-75000D01*
G01*
X137100000Y-107125000D01*
G75*
G02*
X137025000Y-107200000I-75000J0D01*
G01*
X136875000Y-107200000D01*
G75*
G02*
X136800000Y-107125000I0J75000D01*
G01*
G37*
G36*
G01*
X137300000Y-107125000D02*
X137300000Y-105725000D01*
G75*
G02*
X137375000Y-105650000I75000J0D01*
G01*
X137525000Y-105650000D01*
G75*
G02*
X137600000Y-105725000I0J-75000D01*
G01*
X137600000Y-107125000D01*
G75*
G02*
X137525000Y-107200000I-75000J0D01*
G01*
X137375000Y-107200000D01*
G75*
G02*
X137300000Y-107125000I0J75000D01*
G01*
G37*
G36*
G01*
X137800000Y-107125000D02*
X137800000Y-105725000D01*
G75*
G02*
X137875000Y-105650000I75000J0D01*
G01*
X138025000Y-105650000D01*
G75*
G02*
X138100000Y-105725000I0J-75000D01*
G01*
X138100000Y-107125000D01*
G75*
G02*
X138025000Y-107200000I-75000J0D01*
G01*
X137875000Y-107200000D01*
G75*
G02*
X137800000Y-107125000I0J75000D01*
G01*
G37*
G36*
G01*
X139100000Y-104575000D02*
X139100000Y-104425000D01*
G75*
G02*
X139175000Y-104350000I75000J0D01*
G01*
X140575000Y-104350000D01*
G75*
G02*
X140650000Y-104425000I0J-75000D01*
G01*
X140650000Y-104575000D01*
G75*
G02*
X140575000Y-104650000I-75000J0D01*
G01*
X139175000Y-104650000D01*
G75*
G02*
X139100000Y-104575000I0J75000D01*
G01*
G37*
G36*
G01*
X139100000Y-104075000D02*
X139100000Y-103925000D01*
G75*
G02*
X139175000Y-103850000I75000J0D01*
G01*
X140575000Y-103850000D01*
G75*
G02*
X140650000Y-103925000I0J-75000D01*
G01*
X140650000Y-104075000D01*
G75*
G02*
X140575000Y-104150000I-75000J0D01*
G01*
X139175000Y-104150000D01*
G75*
G02*
X139100000Y-104075000I0J75000D01*
G01*
G37*
G36*
G01*
X139100000Y-103575000D02*
X139100000Y-103425000D01*
G75*
G02*
X139175000Y-103350000I75000J0D01*
G01*
X140575000Y-103350000D01*
G75*
G02*
X140650000Y-103425000I0J-75000D01*
G01*
X140650000Y-103575000D01*
G75*
G02*
X140575000Y-103650000I-75000J0D01*
G01*
X139175000Y-103650000D01*
G75*
G02*
X139100000Y-103575000I0J75000D01*
G01*
G37*
G36*
G01*
X139100000Y-103075000D02*
X139100000Y-102925000D01*
G75*
G02*
X139175000Y-102850000I75000J0D01*
G01*
X140575000Y-102850000D01*
G75*
G02*
X140650000Y-102925000I0J-75000D01*
G01*
X140650000Y-103075000D01*
G75*
G02*
X140575000Y-103150000I-75000J0D01*
G01*
X139175000Y-103150000D01*
G75*
G02*
X139100000Y-103075000I0J75000D01*
G01*
G37*
G36*
G01*
X139100000Y-102575000D02*
X139100000Y-102425000D01*
G75*
G02*
X139175000Y-102350000I75000J0D01*
G01*
X140575000Y-102350000D01*
G75*
G02*
X140650000Y-102425000I0J-75000D01*
G01*
X140650000Y-102575000D01*
G75*
G02*
X140575000Y-102650000I-75000J0D01*
G01*
X139175000Y-102650000D01*
G75*
G02*
X139100000Y-102575000I0J75000D01*
G01*
G37*
G36*
G01*
X139100000Y-102075000D02*
X139100000Y-101925000D01*
G75*
G02*
X139175000Y-101850000I75000J0D01*
G01*
X140575000Y-101850000D01*
G75*
G02*
X140650000Y-101925000I0J-75000D01*
G01*
X140650000Y-102075000D01*
G75*
G02*
X140575000Y-102150000I-75000J0D01*
G01*
X139175000Y-102150000D01*
G75*
G02*
X139100000Y-102075000I0J75000D01*
G01*
G37*
G36*
G01*
X139100000Y-101575000D02*
X139100000Y-101425000D01*
G75*
G02*
X139175000Y-101350000I75000J0D01*
G01*
X140575000Y-101350000D01*
G75*
G02*
X140650000Y-101425000I0J-75000D01*
G01*
X140650000Y-101575000D01*
G75*
G02*
X140575000Y-101650000I-75000J0D01*
G01*
X139175000Y-101650000D01*
G75*
G02*
X139100000Y-101575000I0J75000D01*
G01*
G37*
G36*
G01*
X139100000Y-101075000D02*
X139100000Y-100925000D01*
G75*
G02*
X139175000Y-100850000I75000J0D01*
G01*
X140575000Y-100850000D01*
G75*
G02*
X140650000Y-100925000I0J-75000D01*
G01*
X140650000Y-101075000D01*
G75*
G02*
X140575000Y-101150000I-75000J0D01*
G01*
X139175000Y-101150000D01*
G75*
G02*
X139100000Y-101075000I0J75000D01*
G01*
G37*
G36*
G01*
X139100000Y-100575000D02*
X139100000Y-100425000D01*
G75*
G02*
X139175000Y-100350000I75000J0D01*
G01*
X140575000Y-100350000D01*
G75*
G02*
X140650000Y-100425000I0J-75000D01*
G01*
X140650000Y-100575000D01*
G75*
G02*
X140575000Y-100650000I-75000J0D01*
G01*
X139175000Y-100650000D01*
G75*
G02*
X139100000Y-100575000I0J75000D01*
G01*
G37*
G36*
G01*
X139100000Y-100075000D02*
X139100000Y-99925000D01*
G75*
G02*
X139175000Y-99850000I75000J0D01*
G01*
X140575000Y-99850000D01*
G75*
G02*
X140650000Y-99925000I0J-75000D01*
G01*
X140650000Y-100075000D01*
G75*
G02*
X140575000Y-100150000I-75000J0D01*
G01*
X139175000Y-100150000D01*
G75*
G02*
X139100000Y-100075000I0J75000D01*
G01*
G37*
G36*
G01*
X139100000Y-99575000D02*
X139100000Y-99425000D01*
G75*
G02*
X139175000Y-99350000I75000J0D01*
G01*
X140575000Y-99350000D01*
G75*
G02*
X140650000Y-99425000I0J-75000D01*
G01*
X140650000Y-99575000D01*
G75*
G02*
X140575000Y-99650000I-75000J0D01*
G01*
X139175000Y-99650000D01*
G75*
G02*
X139100000Y-99575000I0J75000D01*
G01*
G37*
G36*
G01*
X139100000Y-99075000D02*
X139100000Y-98925000D01*
G75*
G02*
X139175000Y-98850000I75000J0D01*
G01*
X140575000Y-98850000D01*
G75*
G02*
X140650000Y-98925000I0J-75000D01*
G01*
X140650000Y-99075000D01*
G75*
G02*
X140575000Y-99150000I-75000J0D01*
G01*
X139175000Y-99150000D01*
G75*
G02*
X139100000Y-99075000I0J75000D01*
G01*
G37*
G36*
G01*
X139100000Y-98575000D02*
X139100000Y-98425000D01*
G75*
G02*
X139175000Y-98350000I75000J0D01*
G01*
X140575000Y-98350000D01*
G75*
G02*
X140650000Y-98425000I0J-75000D01*
G01*
X140650000Y-98575000D01*
G75*
G02*
X140575000Y-98650000I-75000J0D01*
G01*
X139175000Y-98650000D01*
G75*
G02*
X139100000Y-98575000I0J75000D01*
G01*
G37*
G36*
G01*
X139100000Y-98075000D02*
X139100000Y-97925000D01*
G75*
G02*
X139175000Y-97850000I75000J0D01*
G01*
X140575000Y-97850000D01*
G75*
G02*
X140650000Y-97925000I0J-75000D01*
G01*
X140650000Y-98075000D01*
G75*
G02*
X140575000Y-98150000I-75000J0D01*
G01*
X139175000Y-98150000D01*
G75*
G02*
X139100000Y-98075000I0J75000D01*
G01*
G37*
G36*
G01*
X139100000Y-97575000D02*
X139100000Y-97425000D01*
G75*
G02*
X139175000Y-97350000I75000J0D01*
G01*
X140575000Y-97350000D01*
G75*
G02*
X140650000Y-97425000I0J-75000D01*
G01*
X140650000Y-97575000D01*
G75*
G02*
X140575000Y-97650000I-75000J0D01*
G01*
X139175000Y-97650000D01*
G75*
G02*
X139100000Y-97575000I0J75000D01*
G01*
G37*
G36*
G01*
X139100000Y-97075000D02*
X139100000Y-96925000D01*
G75*
G02*
X139175000Y-96850000I75000J0D01*
G01*
X140575000Y-96850000D01*
G75*
G02*
X140650000Y-96925000I0J-75000D01*
G01*
X140650000Y-97075000D01*
G75*
G02*
X140575000Y-97150000I-75000J0D01*
G01*
X139175000Y-97150000D01*
G75*
G02*
X139100000Y-97075000I0J75000D01*
G01*
G37*
G36*
G01*
X137800000Y-95775000D02*
X137800000Y-94375000D01*
G75*
G02*
X137875000Y-94300000I75000J0D01*
G01*
X138025000Y-94300000D01*
G75*
G02*
X138100000Y-94375000I0J-75000D01*
G01*
X138100000Y-95775000D01*
G75*
G02*
X138025000Y-95850000I-75000J0D01*
G01*
X137875000Y-95850000D01*
G75*
G02*
X137800000Y-95775000I0J75000D01*
G01*
G37*
G36*
G01*
X137300000Y-95775000D02*
X137300000Y-94375000D01*
G75*
G02*
X137375000Y-94300000I75000J0D01*
G01*
X137525000Y-94300000D01*
G75*
G02*
X137600000Y-94375000I0J-75000D01*
G01*
X137600000Y-95775000D01*
G75*
G02*
X137525000Y-95850000I-75000J0D01*
G01*
X137375000Y-95850000D01*
G75*
G02*
X137300000Y-95775000I0J75000D01*
G01*
G37*
G36*
G01*
X136800000Y-95775000D02*
X136800000Y-94375000D01*
G75*
G02*
X136875000Y-94300000I75000J0D01*
G01*
X137025000Y-94300000D01*
G75*
G02*
X137100000Y-94375000I0J-75000D01*
G01*
X137100000Y-95775000D01*
G75*
G02*
X137025000Y-95850000I-75000J0D01*
G01*
X136875000Y-95850000D01*
G75*
G02*
X136800000Y-95775000I0J75000D01*
G01*
G37*
G36*
G01*
X136300000Y-95775000D02*
X136300000Y-94375000D01*
G75*
G02*
X136375000Y-94300000I75000J0D01*
G01*
X136525000Y-94300000D01*
G75*
G02*
X136600000Y-94375000I0J-75000D01*
G01*
X136600000Y-95775000D01*
G75*
G02*
X136525000Y-95850000I-75000J0D01*
G01*
X136375000Y-95850000D01*
G75*
G02*
X136300000Y-95775000I0J75000D01*
G01*
G37*
G36*
G01*
X135800000Y-95775000D02*
X135800000Y-94375000D01*
G75*
G02*
X135875000Y-94300000I75000J0D01*
G01*
X136025000Y-94300000D01*
G75*
G02*
X136100000Y-94375000I0J-75000D01*
G01*
X136100000Y-95775000D01*
G75*
G02*
X136025000Y-95850000I-75000J0D01*
G01*
X135875000Y-95850000D01*
G75*
G02*
X135800000Y-95775000I0J75000D01*
G01*
G37*
G36*
G01*
X135300000Y-95775000D02*
X135300000Y-94375000D01*
G75*
G02*
X135375000Y-94300000I75000J0D01*
G01*
X135525000Y-94300000D01*
G75*
G02*
X135600000Y-94375000I0J-75000D01*
G01*
X135600000Y-95775000D01*
G75*
G02*
X135525000Y-95850000I-75000J0D01*
G01*
X135375000Y-95850000D01*
G75*
G02*
X135300000Y-95775000I0J75000D01*
G01*
G37*
G36*
G01*
X134800000Y-95775000D02*
X134800000Y-94375000D01*
G75*
G02*
X134875000Y-94300000I75000J0D01*
G01*
X135025000Y-94300000D01*
G75*
G02*
X135100000Y-94375000I0J-75000D01*
G01*
X135100000Y-95775000D01*
G75*
G02*
X135025000Y-95850000I-75000J0D01*
G01*
X134875000Y-95850000D01*
G75*
G02*
X134800000Y-95775000I0J75000D01*
G01*
G37*
G36*
G01*
X134300000Y-95775000D02*
X134300000Y-94375000D01*
G75*
G02*
X134375000Y-94300000I75000J0D01*
G01*
X134525000Y-94300000D01*
G75*
G02*
X134600000Y-94375000I0J-75000D01*
G01*
X134600000Y-95775000D01*
G75*
G02*
X134525000Y-95850000I-75000J0D01*
G01*
X134375000Y-95850000D01*
G75*
G02*
X134300000Y-95775000I0J75000D01*
G01*
G37*
G36*
G01*
X133800000Y-95775000D02*
X133800000Y-94375000D01*
G75*
G02*
X133875000Y-94300000I75000J0D01*
G01*
X134025000Y-94300000D01*
G75*
G02*
X134100000Y-94375000I0J-75000D01*
G01*
X134100000Y-95775000D01*
G75*
G02*
X134025000Y-95850000I-75000J0D01*
G01*
X133875000Y-95850000D01*
G75*
G02*
X133800000Y-95775000I0J75000D01*
G01*
G37*
G36*
G01*
X133300000Y-95775000D02*
X133300000Y-94375000D01*
G75*
G02*
X133375000Y-94300000I75000J0D01*
G01*
X133525000Y-94300000D01*
G75*
G02*
X133600000Y-94375000I0J-75000D01*
G01*
X133600000Y-95775000D01*
G75*
G02*
X133525000Y-95850000I-75000J0D01*
G01*
X133375000Y-95850000D01*
G75*
G02*
X133300000Y-95775000I0J75000D01*
G01*
G37*
G36*
G01*
X132800000Y-95775000D02*
X132800000Y-94375000D01*
G75*
G02*
X132875000Y-94300000I75000J0D01*
G01*
X133025000Y-94300000D01*
G75*
G02*
X133100000Y-94375000I0J-75000D01*
G01*
X133100000Y-95775000D01*
G75*
G02*
X133025000Y-95850000I-75000J0D01*
G01*
X132875000Y-95850000D01*
G75*
G02*
X132800000Y-95775000I0J75000D01*
G01*
G37*
G36*
G01*
X132300000Y-95775000D02*
X132300000Y-94375000D01*
G75*
G02*
X132375000Y-94300000I75000J0D01*
G01*
X132525000Y-94300000D01*
G75*
G02*
X132600000Y-94375000I0J-75000D01*
G01*
X132600000Y-95775000D01*
G75*
G02*
X132525000Y-95850000I-75000J0D01*
G01*
X132375000Y-95850000D01*
G75*
G02*
X132300000Y-95775000I0J75000D01*
G01*
G37*
G36*
G01*
X131800000Y-95775000D02*
X131800000Y-94375000D01*
G75*
G02*
X131875000Y-94300000I75000J0D01*
G01*
X132025000Y-94300000D01*
G75*
G02*
X132100000Y-94375000I0J-75000D01*
G01*
X132100000Y-95775000D01*
G75*
G02*
X132025000Y-95850000I-75000J0D01*
G01*
X131875000Y-95850000D01*
G75*
G02*
X131800000Y-95775000I0J75000D01*
G01*
G37*
G36*
G01*
X131300000Y-95775000D02*
X131300000Y-94375000D01*
G75*
G02*
X131375000Y-94300000I75000J0D01*
G01*
X131525000Y-94300000D01*
G75*
G02*
X131600000Y-94375000I0J-75000D01*
G01*
X131600000Y-95775000D01*
G75*
G02*
X131525000Y-95850000I-75000J0D01*
G01*
X131375000Y-95850000D01*
G75*
G02*
X131300000Y-95775000I0J75000D01*
G01*
G37*
G36*
G01*
X130800000Y-95775000D02*
X130800000Y-94375000D01*
G75*
G02*
X130875000Y-94300000I75000J0D01*
G01*
X131025000Y-94300000D01*
G75*
G02*
X131100000Y-94375000I0J-75000D01*
G01*
X131100000Y-95775000D01*
G75*
G02*
X131025000Y-95850000I-75000J0D01*
G01*
X130875000Y-95850000D01*
G75*
G02*
X130800000Y-95775000I0J75000D01*
G01*
G37*
G36*
G01*
X130300000Y-95775000D02*
X130300000Y-94375000D01*
G75*
G02*
X130375000Y-94300000I75000J0D01*
G01*
X130525000Y-94300000D01*
G75*
G02*
X130600000Y-94375000I0J-75000D01*
G01*
X130600000Y-95775000D01*
G75*
G02*
X130525000Y-95850000I-75000J0D01*
G01*
X130375000Y-95850000D01*
G75*
G02*
X130300000Y-95775000I0J75000D01*
G01*
G37*
%TD*%
D18*
%TO.C,U2*%
X149500000Y-116400000D03*
X150450000Y-116400000D03*
X151400000Y-116400000D03*
X151400000Y-114200000D03*
X149500000Y-114200000D03*
X150450000Y-114200000D03*
%TD*%
D19*
%TO.C,U3*%
X155726000Y-97096000D03*
X155726000Y-96146000D03*
X155726000Y-95196000D03*
X153526000Y-95196000D03*
X153526000Y-97096000D03*
X153526000Y-96146000D03*
%TD*%
D20*
%TO.C,Y1*%
X122850000Y-97650000D03*
X122850000Y-99850000D03*
X124550000Y-99850000D03*
X124550000Y-97650000D03*
%TD*%
M02*
